<svg width="32" height="33" viewBox="0 0 32 33" fill="none" xmlns="http://www.w3.org/2000/svg">
    <path fill-rule="evenodd" clip-rule="evenodd" d="M10.4615 3.5C10.9713 3.5 11.3846 3.91328 11.3846 4.42308V5.34615H20.6154V4.42308C20.6154 3.91328 21.0287 3.5 21.5385 3.5C22.0482 3.5 22.4615 3.91328 22.4615 4.42308V5.34615H25.2308C26.7601 5.34615 28 6.58597 28 8.11538V24.7308C28 26.2601 26.7601 27.5 25.2308 27.5H6.76923C5.23982 27.5 4 26.2601 4 24.7308V8.11538C4 6.58597 5.23982 5.34615 6.76923 5.34615H9.53846V4.42308C9.53846 3.91328 9.95174 3.5 10.4615 3.5ZM20.6154 7.19231V8.11538C20.6154 8.62518 21.0287 9.03846 21.5385 9.03846C22.0482 9.03846 22.4615 8.62518 22.4615 8.11538V7.19231H25.2308C25.7405 7.19231 26.1538 7.60559 26.1538 8.11538V10.8846H5.84615V8.11538C5.84615 7.60559 6.25943 7.19231 6.76923 7.19231H9.53846V8.11538C9.53846 8.62518 9.95174 9.03846 10.4615 9.03846C10.9713 9.03846 11.3846 8.62518 11.3846 8.11538V7.19231H20.6154ZM5.84615 12.7308V24.7308C5.84615 25.2405 6.25943 25.6538 6.76923 25.6538H25.2308C25.7405 25.6538 26.1538 25.2405 26.1538 24.7308V12.7308H5.84615ZM15.0769 15.5C15.0769 14.9902 15.4902 14.5769 16 14.5769C16.5098 14.5769 16.9231 14.9902 16.9231 15.5C16.9231 16.0098 16.5098 16.4231 16 16.4231C15.4902 16.4231 15.0769 16.0098 15.0769 15.5ZM19.6923 14.5769C19.1825 14.5769 18.7692 14.9902 18.7692 15.5C18.7692 16.0098 19.1825 16.4231 19.6923 16.4231C20.2021 16.4231 20.6154 16.0098 20.6154 15.5C20.6154 14.9902 20.2021 14.5769 19.6923 14.5769ZM22.4615 15.5C22.4615 14.9902 22.8749 14.5769 23.3846 14.5769C23.8943 14.5769 24.3077 14.9902 24.3077 15.5C24.3077 16.0098 23.8943 16.4231 23.3846 16.4231C22.8749 16.4231 22.4615 16.0098 22.4615 15.5ZM23.3846 18.2692C22.8749 18.2692 22.4615 18.6825 22.4615 19.1923C22.4615 19.7021 22.8749 20.1154 23.3846 20.1154C23.8943 20.1154 24.3077 19.7021 24.3077 19.1923C24.3077 18.6825 23.8943 18.2692 23.3846 18.2692ZM18.7692 19.1923C18.7692 18.6825 19.1825 18.2692 19.6923 18.2692C20.2021 18.2692 20.6154 18.6825 20.6154 19.1923C20.6154 19.7021 20.2021 20.1154 19.6923 20.1154C19.1825 20.1154 18.7692 19.7021 18.7692 19.1923ZM16 18.2692C15.4902 18.2692 15.0769 18.6825 15.0769 19.1923C15.0769 19.7021 15.4902 20.1154 16 20.1154C16.5098 20.1154 16.9231 19.7021 16.9231 19.1923C16.9231 18.6825 16.5098 18.2692 16 18.2692ZM11.3846 19.1923C11.3846 18.6825 11.7979 18.2692 12.3077 18.2692C12.8175 18.2692 13.2308 18.6825 13.2308 19.1923C13.2308 19.7021 12.8175 20.1154 12.3077 20.1154C11.7979 20.1154 11.3846 19.7021 11.3846 19.1923ZM8.61538 18.2692C8.10559 18.2692 7.69231 18.6825 7.69231 19.1923C7.69231 19.7021 8.10559 20.1154 8.61538 20.1154C9.12518 20.1154 9.53846 19.7021 9.53846 19.1923C9.53846 18.6825 9.12518 18.2692 8.61538 18.2692ZM7.69231 22.8846C7.69231 22.3749 8.10559 21.9615 8.61538 21.9615C9.12518 21.9615 9.53846 22.3749 9.53846 22.8846C9.53846 23.3943 9.12518 23.8077 8.61538 23.8077C8.10559 23.8077 7.69231 23.3943 7.69231 22.8846ZM12.3077 21.9615C11.7979 21.9615 11.3846 22.3749 11.3846 22.8846C11.3846 23.3943 11.7979 23.8077 12.3077 23.8077C12.8175 23.8077 13.2308 23.3943 13.2308 22.8846C13.2308 22.3749 12.8175 21.9615 12.3077 21.9615ZM15.0769 22.8846C15.0769 22.3749 15.4902 21.9615 16 21.9615C16.5098 21.9615 16.9231 22.3749 16.9231 22.8846C16.9231 23.3943 16.5098 23.8077 16 23.8077C15.4902 23.8077 15.0769 23.3943 15.0769 22.8846ZM19.6923 21.9615C19.1825 21.9615 18.7692 22.3749 18.7692 22.8846C18.7692 23.3943 19.1825 23.8077 19.6923 23.8077C20.2021 23.8077 20.6154 23.3943 20.6154 22.8846C20.6154 22.3749 20.2021 21.9615 19.6923 21.9615Z" fill="#454545"/>
</svg>
